<svg xmlns="http://www.w3.org/2000/svg" viewBox="0 0 460 460" version="1.1" width="460" height="460">
	<path d="M 211.5 22.562213464650338 C 209.85 22.785439358854315, 204.675 23.46715211302985, 200 24.07713069615152 C 156.8105375984037 29.712349323213004, 115.6818222361773 50.475588661156756, 83.08703953746752 83.09895421803537 C 51.163757650922626 115.05023011352584, 33.11977686506742 149.88237018448683, 24.342262816396897 196.5 C 21.87370643302595 209.61057402136987, 21.857220932884776 249.7030303695747, 24.314829161525424 263.21818270523977 C 34.10581834445775 317.061878694723, 60.08680849336371 360.63095700993733, 102.69429874120935 394.65740918776123 C 107.7511630488745 398.69583413449266, 112.12463092934607 402.0000000000001, 112.4131162533684 402.0000000000001 C 112.70160157739075 402.00000000000006, 115.98916714384654 403.9523157464156, 119.71881751215906 406.338479436479 C 132.33200147506048 414.4081692508577, 156.45249095204284 425.8808423813271, 157.85551130342662 424.47782202990106 C 158.09315146330405 424.24018187001656, 157.7728778490738 419.5193265514243, 157.14379216069278 413.98703243302947 C 154.8788738193137 394.06892803154017, 155.977620781479 357.91370148198973, 159.54351081405778 335.0221983491123 C 161.34921990915197 323.43031104194205, 162.4139720898428 317.42105764144077, 164.24285807849094 308.5 C 166.69778727319647 296.52518856420795, 167.03212028093873 279.09570064013997, 164.8950471911464 274.5 C 157.54908037180562 258.7027562953535, 146.27325126930347 251.55554255164125, 115 242.87389394731088 C 109.225 241.27071811316856, 99.325 239.08458202343263, 93 238.01581374789768 C 76.99395936684179 235.31118948771703, 74.30416361346633 234.37842433790004, 69.88003705138316 229.9982920916652 C 65.31560645218882 225.47925101707665, 65.48106053501343 226.46201521925934, 68.10430125112818 219.45077614505198 C 71.71293010509105 209.80585127415048, 81.91541774245536 201.82127241431462, 92.40724643259358 200.43102437225696 C 102.45191955050036 199.10002788463743, 114.74482789943835 196.51873645775768, 130.5 192.43222576262735 C 152.8214299769771 186.6425865413416, 151.24466519919815 187.19321546349863, 161.12305329734107 181.73821542709442 L 169.74610659468215 176.97643085418883 162.04941585406652 169.48642802591027 C 154.5403112105455 162.17897383380983, 150.00000000000006 155.3174602059115, 150 151.27683241518122 C 150 148.78634970371965, 154.50156605503594 144.16320301325484, 157.7108496831235 143.35772409657193 C 161.59039752043176 142.38401957202765, 191.29793697763523 146.84299340193786, 210.04002123495906 151.21210755457105 C 214.3849475420062 152.22498737944161, 214.92210066810182 152.08659595242642, 222.54002123495906 147.99162394636068 C 226.91800955573157 145.6382599989282, 232.87123782830972 142.20240481432012, 235.7694173962438 140.35639020278717 C 238.6675969641779 138.51037559125422, 241.24213716296018 137, 241.4906178379822 137.00000000000003 C 241.73909851300425 137.00000000000006, 245.44286068469452 134.92711799479005, 249.7212004417384 132.39359554397782 C 253.99954019878228 129.8600730931656, 260.425 126.23524413716942, 264 124.33842008620853 C 270.62521931469496 120.82321020117244, 273.39271747150883 119.26651245276221, 287.5 111.11983961576793 C 291.9 108.57892782709557, 303.53651734948653 102.45, 313.35892744330334 97.5 C 329.575378424921 89.3277254164395, 331.73881997534534 88.5, 336.8823973852729 88.5 C 342.8663291603822 88.5, 345.3988718870261 89.94606361387908, 347.93096385935706 94.80865169444532 C 349.49388690057503 97.81006358394819, 348.661258559347 101.36024464671495, 344.0434365349545 111.38438567405754 C 341.98719507142414 115.84797355332589, 338.61033098584994 123.55, 336.5392941225673 128.5 C 334.4682572592846 133.45, 331.28748668706913 140.875, 329.47091507319954 145 C 327.6543434593299 149.125, 324.27368479297394 157, 321.95834025907516 162.5 C 319.64299572517643 168, 316.95410874894543 174.3, 315.9830358674508 176.5 C 313.0535813321907 183.1367829854879, 305 204.10468950081477, 305 205.09488963036875 C 305 207.38271505101156, 316.4459032265282 221.14857581573833, 323.605758578015 227.47182895425334 C 339.6798450649181 241.66771879244183, 346 248.77277812033648, 346 252.6472266368637 C 346 259.9291717948598, 341.432676312316 262.5210667653333, 329.9835832630208 261.736328444455 L 322.0565393837549 261.1929967520179 325.8693902608704 266.846498376009 C 327.9664582432839 269.95592426920405, 331.61675315821685 276.1, 333.98115673849924 280.5 C 336.3455603187816 284.9, 338.6997478700303 289.03549963262094, 339.212684630163 289.689999183602 C 339.72562139029566 290.3444987345831, 343.30421280772197 297.31949873458314, 347.16511000222135 305.189999183602 C 356.8486338797246 324.93001690138954, 369.0186125660162 356.13691724123174, 373.9019451118091 373.75 C 374.5500309683357 376.0875, 375.3446703351347 377.99999999999994, 375.66781037136235 378 C 376.6862229641229 378, 386.8454674958968 366.8249402590181, 393.39525639503654 358.5 C 415.6128738209438 330.2608703705409, 430.05037062944245 296.49698207369966, 436.15542868789817 258.5 C 438.08081187000136 246.51669868576437, 437.779622709919 212.00908024001907, 435.6361011935051 199 C 430.9545136526951 170.58734003707931, 419.9805405373142 140.7327067040626, 406.63495551392396 120.10254313565002 C 404.08572998126573 116.16184367441713, 401.99999999999994 112.69935904959937, 402 112.40813285827721 C 402 112.11690666695506, 398.2919642649181 107.29343878648363, 393.7599205887068 101.68931534611846 C 367.390027031814 69.08147897909133, 337.6315578500935 47.81985536557174, 298.1837278557898 33.402703427628595 C 287.7029708143948 29.572260366190775, 278.92449861446846 27.3416403518067, 263 24.462477184567135 C 254.90876393889505 22.999574683925257, 218.26213167828072 21.647375349129568, 211.5 22.562213464650338 M 332 95.23115728214734 C 325.43443998827047 98.10896493177222, 297.71673033943887 112.1537311261532, 294.11210857725325 114.4292289616738 C 291.8723079511521 115.84315303275321, 289.7521662766004 117, 289.40068263380505 117 C 289.0491989910097 117, 286.22775663544184 118.50058012911705, 283.1308107325431 120.33462250914901 C 280.0338648296444 122.16866488918097, 272.775 126.29400752646131, 267 129.5020505919942 C 261.225 132.7100936575271, 252.9 137.4664746931507, 248.5 140.07178622671333 C 244.1 142.67709776027596, 236.9 146.69843556807115, 232.5 149.00809246625818 C 228.1 151.31774936444523, 224.275 153.5489196970271, 224 153.96624876088453 C 223.725 154.38357782474193, 221.78401360045117 155.5987848310285, 219.6866968898915 156.6667087748546 C 215.8820560107716 158.60397798747042, 215.84684648862066 158.60311486706095, 204.1866968898915 156.28674433543273 C 182.69455766931617 152.0171800789315, 169.55267297634208 149.76219538852772, 163.25 149.262514027602 C 157.01143167322203 148.76791493869902, 157 148.7719220877193, 157 151.45332904569418 C 157.00000000000003 155.1744431203988, 161.86804864874807 161.88526943969504, 169.2636874754338 168.35937962572092 C 181.25733445652082 178.85856622846242, 182.4890901885665 180.0656451551919, 181 179.86056866617085 C 179.1484552650611 179.60557518328972, 176.20302912441076 180.85310744847573, 163.64378792286135 187.21177475102647 C 158.2228712804351 189.95635181988607, 150.79787128043512 193.09958414588056, 147.14378792286135 194.19673547545867 C 131.49847745934127 198.894294752845, 113.67542196739697 203.25225966659193, 102.5 205.11271233882667 C 87.31683706869713 207.64036240259404, 84.6304729843117 208.5075403741842, 80.3553153626075 212.26117848195966 C 76.61253007685592 215.54738748779698, 73.00000000000007 221.7311076924279, 73.00000000000003 224.8515822298986 C 72.99999999999999 227.55823535392787, 78.32484738404746 229.4652826100679, 91.52976470361624 231.48785448078365 C 113.53746463014588 234.85873168760938, 132.48816272372486 240.8095190270523, 149.5 249.69132859887603 C 158.45339123530346 254.36585696888952, 164.09371762738647 260.22593949152576, 168.5191026515787 269.45144588591495 C 172.16800646301843 277.0582383482482, 172.3320822810815 277.83844382451997, 172.30447050012023 287.45144588591495 C 172.28725601210343 293.4446452751036, 171.41999213071304 301.9393353976501, 170.15552210114504 308.5 C 168.18401020048563 318.7291300207304, 166.9472756708067 326.5351718511346, 164.92723350545208 341.5 C 162.45502085655278 359.8145867312797, 161.65288433594327 383.1871774508713, 162.81106424028758 403.16077326897664 C 164.22267593528005 427.5049717325589, 164.434033543244 428.65865435132304, 167.59297170162182 429.26252364278344 L 169.9902065654171 429.7207841233898 169.24510328270856 421.11039206169494 C 167.9768746740396 406.4547788092582, 168.36056609012653 353.4249357934864, 169.80302678092391 344 C 171.956434252721 329.929788389809, 173.14116167614222 322.97344340337963, 175.08260250606477 313 C 176.09970642153974 307.775, 177.2259844757337 301.025, 177.58544262649582 298 C 178.52028620651032 290.132876042599, 188.24743656327178 270.4964414498956, 194.51392851521692 263.82605452620476 C 197.9665611444939 260.15088894405017, 206.034408033364 257.59580293473556, 211.7239536562422 258.37564191135345 C 221.88706197794596 259.76865086464926, 228.31637638323997 266.4580132578092, 231.3871196319489 278.83412857364004 C 235.53003178175896 295.53144070840216, 248.99677216659103 333.7176376236443, 254.0158494314434 343 C 260.37299943747956 354.75701566702526, 262.14535167363215 362.38449872816443, 261.80004238673325 376.5 C 261.6206390439987 383.8336229537389, 262.06823110450455 387.07380054369105, 264.21745959347584 394 C 265.6681315311412 398.675, 268.04713395986175 406.5188803281434, 269.5041316572992 411.43084517365196 C 274.0549992473494 426.773149185667, 276.90275591471055 433, 279.3684605608748 433 C 282.91408766770036 432.9999999999999, 309.3789378868688 424.0210621131506, 311.1996015706708 422.2003984293292 C 311.6679736676148 421.73202633238026, 312.653621364264 417.31603815242363, 313.38992978544684 412.38709136275895 C 314.78412745444535 403.05414619050464, 316.86137728510244 397.65090814045016, 319.4348383445671 396.6633784738733 C 321.40828694163685 395.90609519270475, 325.8064243240652 397.47085485488776, 334.94358293595883 402.1810455764663 L 342.38716587191766 406.01820073262354 348.44358293595883 401.8271728876739 C 357.7058742171727 395.4176868405391, 370 384.85282380651773, 370 383.3028306278974 C 370 380.21333380450267, 360.9773843652023 353.0797778613405, 353.99757458976455 335.1790134700097 C 347.8894384791859 319.51378635015027, 334.9807753264236 293.12780006742395, 327.3748114909273 280.76068574535486 C 324.4186651709173 275.9540629053, 322 271.60406290530005, 322 271.09401907868823 C 322 270.5839752520764, 321.65096801292844 270.0166666666667, 321.2243733620632 269.83333333333337 C 320.12543767138527 269.3610546892333, 309 252.22922188821173, 309 251.0092720494547 C 309 249.6067308104048, 309.1569562184356 249.63604602687954, 319.6585305730483 253 C 331.99030754745496 256.95022010489976, 340.00050736012827 257.00653704895655, 339.99962459226816 253.14301119581583 C 339.9992349851532 251.43785491490368, 328.21342467524465 239.2359119940091, 319.5 231.9195872141546 C 316.75 229.6105188633646, 314.34017988542604 227.3045325256802, 314.1448441898356 226.79517313041146 C 313.9495084942452 226.28581373514268, 312.1195939208996 224.21102548273564, 310.07836736017873 222.18453256950687 C 305.37693348039807 217.51703381031746, 299 207.5890613049828, 299 204.93710057199047 C 299 203.01103714351626, 306.8843511327923 182.27455929537933, 311.04381487461563 173.26089841557024 C 312.11971669357706 170.92939254413386, 313 168.77191747159594, 313 168.46650936548596 C 313 167.63525590155018, 326.64400647709095 135.97143955131853, 331.5143611747985 125.5 C 332.7934093279256 122.75, 334.15291438942734 119.41923993712837, 334.53548353369126 118.09831097139639 C 334.9180526779552 116.7773820056644, 336.9790744418917 111.89507645598083, 339.11553189799463 107.24874308321067 C 343.55116620632793 97.60219680757999, 343.53598443036674 97.6788415732239, 341.42857142857144 95.57142857142857 C 339.6320490174999 93.77490616035708, 335.65020570440936 93.6312039072506, 332 95.23115728214734 M 335.11773102879295 102.65262125174517 C 334.55626638437604 103.66867956328532, 333.42769294662094 106.075, 332.6097900560038 108 C 330.3049865392853 113.42453978410006, 320.01119007954264 136.9748761033658, 317.7484702478049 142 C 316.6340237786737 144.475, 314.70114917559135 149.2126740915861, 313.45319335206636 152.5281646479691 C 312.20523752854143 155.84365520435213, 310.0697312870983 161.01865520435214, 308.70762392663715 164.0281646479691 C 307.345516566176 167.0376740915861, 304.55047809890044 173.55, 302.49642733269144 178.5 C 300.44237656648244 183.45, 298.685315923972 187.59257099738767, 298.59184812711266 187.70571332752814 C 297.3733067586335 189.18075194440942, 261.72022269814767 173.26170617805272, 262.6982240143268 171.6792668074328 C 263.0412709119948 171.1242052672707, 262.79993721678954 171.0056116111581, 262.14768401923095 171.40872625652008 C 261.50895088290173 171.80348504451234, 259.68245533443746 171.19801386824668, 258.08880502264367 170.06323475370755 C 256.4951547108499 168.9284556391684, 254.85924178580092 168, 254.45344296697937 168 C 252.76696208176878 168, 237.99774873305088 154.53158825029652, 238.00471802837285 153 C 238.00596938049912 152.725, 240.57382660612853 151.15, 243.71106741866043 149.5 C 246.84830823119236 147.85, 252.91383883106545 144.3625, 257.1900243072673 141.75 C 261.4662097834692 139.1375, 265.2408361935049 137, 265.57808299623554 137 C 265.9153297989662 137, 267.3857257259303 136.16096797860897, 268.8456295006002 135.1354843969088 C 270.3055332752701 134.11000081520862, 275.325 131.24254199798807, 280 128.7633536919742 C 284.675 126.28416538596032, 295.25 120.53432429539552, 303.5 115.98592904627463 C 318.04180010663885 107.96873455915929, 335.10283409178174 99.76950075844842, 335.79760141576355 100.46426808243024 C 335.98513734734667 100.65180401401331, 335.67919567320985 101.63656294020502, 335.11773102879295 102.65262125174517 M 177.5 157.09025664462433 C 180.25 157.6236012318065, 184.75 158.49375402133288, 187.5 159.02392951023853 C 190.25 159.55410499914416, 196.97963740887454 160.8906108320746, 202.45474979749895 161.9939424723062 C 207.9298621861234 163.0972741125378, 213.67339845998183 164, 215.21816373940658 164 C 217.3588486437412 164, 219.61643926816157 165.6053396343153, 224.71069503253494 170.75 C 228.38682196433084 174.4625, 231.6432856904724 177.5111626220705, 231.94728109062737 177.5248058268233 C 232.25127649078232 177.53844903157608, 234.48279166943652 179.00295875641828, 236.90620370985894 180.77927188202816 C 240.9059840185988 183.71103179056274, 255.36645439348317 191.22706473598288, 265.5 195.64129983684495 C 267.7 196.5996334348752, 274.45 199.02893079031804, 280.5 201.03973840449572 C 290.8083899855111 204.46588535867403, 291.61059738593315 204.92553114130166, 293.25904226338287 208.35036650845737 C 297.20627904915875 216.55120860599718, 304.24250206434 225.36566194753163, 314.69591630278 235.20487717432638 C 318.02946411115994 238.3425596202059, 320.5116070464618 241.1550596202059, 320.2117894923397 241.45487717432638 C 319.9119719382175 241.75469472844688, 320.3253401721953 242, 321.1303855678458 242 C 321.93543096349634 242, 324.37293096349714 243.8473380641696, 326.5470522345143 246.10519569815466 L 330.5 250.21039139630932 327 249.4804464571701 C 320.9767207591555 248.22425725749105, 283.354338079289 233.4679845599094, 263.5 224.57443972522864 C 250.9051782682918 218.9327199505158, 230.06603066620787 207.64181522154752, 227.03314454468702 204.81625198295157 C 225.9609098318449 203.8173133923282, 224.80794828667226 203, 224.47100777763671 203 C 223.83218118251247 203, 210.87404339583622 194.01695234957037, 210 192.96817640340961 C 209.725 192.63820035580358, 207.025 190.73146055816437, 204 188.7309768531003 C 200.975 186.7304931480362, 195.125 182.35050825161392, 191 178.997677083273 C 186.875 175.6448459149321, 181.925 171.69748532297606, 180 170.2257646567041 C 176.4022827286555 167.47520109325407, 170.0269594882621 161.29876152906087, 166.51392457999412 157.16039892558905 L 164.52784915998822 154.82079785117807 168.51392457999412 155.47066853228102 C 170.70626606099734 155.82809740688768, 174.75 156.55691205744213, 177.5 157.09025664462433 M 189.81593658354586 211.3150546898151 C 193.67298576226042 214.36121447634542, 194.89652063176896 220.36564012226222, 192.57499551670344 224.85497466242796 C 187.99512258235498 233.71147232437994, 173 230.11078690431137, 173 220.15455287075545 C 173 215.03429481059246, 177.3530268524674 209.6780457860306, 181.0708098134686 210.22370046484576 C 182.62377054912258 210.45162670484277, 183.65543548215916 210.25149989319124, 183.36339855354984 209.77897421673123 C 182.67553244770693 208.6659834777684, 188.09538519791244 209.95622461046355, 189.81593658354586 211.3150546898151 M 179.83186120216482 213.52908347422473 C 173.7871432449117 216.81183846879895, 175.9682938766149 226.13180437808472, 182.94241137657372 226.82033496471746 C 187.60459373900744 227.28061616259154, 190 224.75214348547814, 190 219.37069258411952 C 190 215.59900403891348, 189.62592938402432 214.85792085906255, 187.0496599268842 213.5256801462316 C 183.49747028056237 211.68877149003075, 183.22028857287984 211.6889021864246, 179.83186120216482 213.52908347422473" stroke="none" fill="#000000" fill-rule="evenodd" data-fill-layer-id="trace-color"/>
</svg>